<?xml version="1.0" encoding="UTF-8"?>
<svg id="Layer_1" data-name="Layer 1" xmlns="http://www.w3.org/2000/svg" viewBox="0 0 152.47 33.67">
  <defs>
    <style>
      .cls-1 {
        fill: #ea3324;
      }
    </style>
  </defs>
  <g>
    <path class="cls-1" d="M83.47,10.2h-4.12v12.65h3.57c3.63,0,5.45-2.07,5.45-6.22s-1.76-6.43-4.9-6.43Z"/>
    <path class="cls-1" d="M0,0v33.67h99.68V0H0ZM43.38,27.38l-5.42-8.71h-2.81v8.71h-5.36V5.72h10.45c5.03,0,8.23,2.4,8.23,6.16,0,2.04-1,5.26-5,6.1l5.75,9.4h-5.84ZM70.68,23.96c-1.48,2.04-4.96,4.09-8.93,4.09-6.48,0-11.02-4.57-11.02-11.12,0-4.81,2.15-11.75,10.99-11.75,4.63,0,6.81,2.13,8.6,4.3l-3.36,3.31c-1.33-1.74-2.94-3.06-5.24-3.06-3.94,0-5.39,2.67-5.39,7.12s1.73,6.73,5.06,6.73c1.61,0,3.06-.39,4.15-1.2v-3.04h-4.88v-3.85h10.02v8.47ZM84.58,27.39h-10.62V5.72h10.53c5.75,0,9.48,4.33,9.48,11.03s-3.63,10.64-9.39,10.64Z"/>
    <path class="cls-1" d="M39.88,9.62h-4.66v5.11h4.54c1.91,0,3.12-1.2,3.12-2.77,0-1.35-1.24-2.34-3-2.34Z"/>
  </g>
  <g>
    <path class="cls-1" d="M119.62,14.05c0,.28-.05.54-.17.77s-.27.42-.47.59c-.2.17-.44.29-.73.38s-.59.13-.93.13-.64-.04-.92-.13-.52-.21-.74-.35c-.22-.15-.41-.32-.56-.52-.16-.2-.29-.41-.39-.62l1.19-.58c.09.19.19.36.31.49.11.13.24.24.36.32s.26.14.38.18c.13.04.25.06.36.06.23,0,.42-.05.56-.14s.21-.24.21-.43-.07-.33-.2-.42-.32-.17-.55-.24l-.65-.2c-.2-.06-.4-.13-.61-.22-.2-.09-.39-.2-.56-.34s-.31-.3-.41-.5c-.11-.2-.16-.44-.16-.72s.06-.52.17-.73c.11-.22.26-.4.46-.55.19-.15.42-.26.69-.34.26-.08.55-.12.86-.12s.59.04.84.12.48.18.67.3.36.26.5.41.24.29.31.43l-1.06.68c-.06-.13-.14-.25-.24-.35s-.21-.18-.32-.25-.23-.12-.35-.15c-.12-.03-.23-.05-.33-.05-.21,0-.37.04-.5.12s-.2.2-.2.36.07.29.22.37.32.15.53.21l.63.19c.21.06.42.14.64.23.21.09.41.21.58.36s.31.33.42.53c.11.21.16.45.16.73h0Z"/>
    <path class="cls-1" d="M124.62,9.92l-.22,1.16h-1.54v4.71h-1.46v-4.71h-1.65v-1.16h4.87Z"/>
    <path class="cls-1" d="M129.97,13.64c0,.78-.21,1.35-.64,1.72s-1.03.55-1.81.55-1.38-.18-1.81-.55-.64-.94-.64-1.72v-3.72h1.47v3.57c0,.38.07.67.21.88s.4.32.78.32.64-.11.78-.32.21-.5.21-.88v-3.57h1.47v3.72h-.02Z"/>
    <path class="cls-1" d="M136.33,12.86c0,.46-.07.87-.2,1.24s-.33.67-.58.92-.56.44-.92.58c-.36.13-.78.2-1.24.2h-2.29v-5.87h2.29c.46,0,.87.07,1.24.2.36.13.67.33.92.58s.44.56.58.92c.13.36.2.78.2,1.24h0ZM134.8,12.86c0-.58-.13-1.02-.39-1.31s-.68-.44-1.26-.44h-.59v3.52h.59c.58,0,1-.15,1.26-.44s.39-.73.39-1.31v-.02Z"/>
    <path class="cls-1" d="M141.34,15.79h-4.15v-5.87h4.08l-.22,1.16h-2.4v.97h2.22v1.16h-2.22v1.4h2.47l.22,1.18h0Z"/>
    <path class="cls-1" d="M147.04,15.79h-1.55l-1.75-3.33c-.04-.07-.08-.15-.11-.22-.03-.07-.07-.14-.09-.2l-.08-.21h-.02c0,.07,0,.14.02.21,0,.06,0,.13,0,.21v3.53h-1.36v-5.87h1.64l1.66,3.16c.04.07.08.15.11.22s.07.14.09.2l.08.21h.02c0-.06,0-.13-.02-.21,0-.06,0-.13,0-.22v-3.36h1.37v5.87h0Z"/>
    <path class="cls-1" d="M152.47,9.92l-.22,1.16h-1.54v4.71h-1.46v-4.71h-1.65v-1.16h4.87Z"/>
    <path class="cls-1" d="M120.47,24.32v-5.27h-.02s-.06.19-.09.29l-1.67,4.98h-.8l-1.67-4.98c-.03-.1-.09-.29-.09-.29h-.02v5.27h-.72v-5.87h1.25l1.55,4.66c.07.21.1.39.1.39h.02s.03-.19.1-.39l1.55-4.66h1.25v5.87h-.75,0Z"/>
    <path class="cls-1" d="M122.8,24.32v-5.87h3.6l-.12.65h-2.73v1.7h2.42v.65h-2.42v2.23h2.85l.12.65h-3.72,0Z"/>
    <path class="cls-1" d="M132.66,24.32v-5.27h-.02s-.06.19-.09.29l-1.67,4.98h-.8l-1.67-4.98c-.03-.1-.09-.29-.09-.29h-.02v5.27h-.72v-5.87h1.25l1.55,4.66c.07.21.1.39.1.39h.02s.03-.19.1-.39l1.55-4.66h1.25v5.87h-.75,0Z"/>
    <path class="cls-1" d="M134.99,24.32v-5.87h1.98c1.13,0,1.95.43,1.95,1.43s-.88,1.18-1.13,1.21v.02c.6.03,1.45.43,1.45,1.52s-.84,1.69-2,1.69h-2.25,0ZM136.85,20.83c.77,0,1.3-.17,1.3-.87s-.54-.87-1.3-.87h-1.11v1.74s1.11,0,1.11,0ZM136.97,23.69c.85,0,1.49-.27,1.49-1.13s-.64-1.11-1.49-1.11h-1.23v2.23h1.23Z"/>
    <path class="cls-1" d="M140.44,24.32v-5.87h3.6l-.12.65h-2.73v1.7h2.42v.65h-2.42v2.23h2.85l.12.65h-3.72Z"/>
    <path class="cls-1" d="M148.82,24.32l-1.66-2.73h-1.19v2.73h-.75v-5.87h2.17c1.19,0,1.97.54,1.97,1.57s-.77,1.42-1.38,1.52l1.72,2.78h-.89.01ZM147.39,20.96c.7,0,1.21-.24,1.21-.94s-.51-.94-1.21-.94h-1.42v1.88s1.42,0,1.42,0Z"/>
  </g>
</svg>